<?xml version="1.0" encoding="UTF-8" standalone="no"?>
<!-- Created with Inkscape (http://www.inkscape.org/) -->

<svg
   xmlns:dc="http://purl.org/dc/elements/1.1/"
   xmlns:cc="http://creativecommons.org/ns#"
   xmlns:rdf="http://www.w3.org/1999/02/22-rdf-syntax-ns#"
   xmlns:svg="http://www.w3.org/2000/svg"
   xmlns="http://www.w3.org/2000/svg"
   xmlns:sodipodi="http://sodipodi.sourceforge.net/DTD/sodipodi-0.dtd"
   xmlns:inkscape="http://www.inkscape.org/namespaces/inkscape"
   width="744.09448"
   height="642"
   id="svg5148"
   version="1.1"
   inkscape:version="0.48.4 r9939"
   sodipodi:docname="New document 17">
  <defs
     id="defs5150" />
  <sodipodi:namedview
     id="base"
     pagecolor="#ffffff"
     bordercolor="#666666"
     borderopacity="1.0"
     inkscape:pageopacity="0.0"
     inkscape:pageshadow="2"
     inkscape:zoom="0.7"
     inkscape:cx="308.50695"
     inkscape:cy="364.4465"
     inkscape:document-units="px"
     inkscape:current-layer="layer1"
     showgrid="false"
     inkscape:window-width="1600"
     inkscape:window-height="838"
     inkscape:window-x="-8"
     inkscape:window-y="-8"
     inkscape:window-maximized="1" />
  <metadata
     id="metadata5153">
    <rdf:RDF>
      <cc:Work
         rdf:about="">
        <dc:format>image/svg+xml</dc:format>
        <dc:type
           rdf:resource="http://purl.org/dc/dcmitype/StillImage" />
        <dc:title></dc:title>
      </cc:Work>
    </rdf:RDF>
  </metadata>
  <g
     inkscape:label="Layer 1"
     inkscape:groupmode="layer"
     id="layer1">
    <g
       id="g5588"
       transform="matrix(1.056807,0,0,1.056807,8.2238309,-14.213308)">
      <path
         id="path5590"
         d="m 67.387953,138.66622 -67.28459724,0 0,-122.236573 134.56919424,0 0,122.236573 -67.284597,0 z"
         style="fill:#cfe7f5;fill-opacity:1;fill-rule:evenodd;stroke:none"
         inkscape:connector-curvature="0" />
      <path
         id="path5592"
         d="m 67.387953,138.66622 -67.28459724,0 0,-122.236573 134.56919424,0 0,122.236573 -67.284597,0"
         style="fill:none;stroke:#808080;stroke-width:0.10335576px;stroke-linecap:round;stroke-linejoin:round;stroke-opacity:1;stroke-dasharray:none"
         inkscape:connector-curvature="0" />
      <text
         id="text5594"
         style="font-size:65.63090515px;font-style:normal;font-weight:normal;text-align:start;text-anchor:start;fill:#000000;font-family:Arial"
         y="97.826813"
         x="49.300697"
         xml:space="preserve">1</text>
      <path
         id="path5596"
         d="m 201.95715,138.66622 -67.2846,0 0,-122.236573 134.56919,0 0,122.236573 -67.28459,0 z"
         style="fill:#cfe7f5;fill-opacity:1;fill-rule:evenodd;stroke:none"
         inkscape:connector-curvature="0" />
      <path
         id="path5598"
         d="m 201.95715,138.66622 -67.2846,0 0,-122.236573 134.56919,0 0,122.236573 -67.28459,0"
         style="fill:none;stroke:#808080;stroke-width:0.10335576px;stroke-linecap:round;stroke-linejoin:round;stroke-opacity:1;stroke-dasharray:none"
         inkscape:connector-curvature="0" />
      <text
         id="text5600"
         style="font-size:65.63090515px;font-style:normal;font-weight:normal;text-align:start;text-anchor:start;fill:#000000;font-family:Arial"
         y="97.826813"
         x="183.86989"
         xml:space="preserve">2</text>
      <path
         id="path5602"
         d="m 336.52634,138.66622 -67.2846,0 0,-122.236573 134.46584,0 0,122.236573 -67.18124,0 z"
         style="fill:#cfe7f5;fill-opacity:1;fill-rule:evenodd;stroke:none"
         inkscape:connector-curvature="0" />
      <path
         id="path5604"
         d="m 336.52634,138.66622 -67.2846,0 0,-122.236573 134.46584,0 0,122.236573 -67.18124,0"
         style="fill:none;stroke:#808080;stroke-width:0.10335576px;stroke-linecap:round;stroke-linejoin:round;stroke-opacity:1;stroke-dasharray:none"
         inkscape:connector-curvature="0" />
      <text
         id="text5606"
         style="font-size:65.63090515px;font-style:normal;font-weight:normal;text-align:start;text-anchor:start;fill:#000000;font-family:Arial"
         y="97.826813"
         x="318.33572"
         xml:space="preserve">3</text>
      <path
         id="path5608"
         d="m 470.99218,138.66622 -67.2846,0 0,-122.236573 134.5692,0 0,122.236573 -67.2846,0 z"
         style="fill:#cfe7f5;fill-opacity:1;fill-rule:evenodd;stroke:none"
         inkscape:connector-curvature="0" />
      <path
         id="path5610"
         d="m 470.99218,138.66622 -67.2846,0 0,-122.236573 134.5692,0 0,122.236573 -67.2846,0"
         style="fill:none;stroke:#808080;stroke-width:0.10335576px;stroke-linecap:round;stroke-linejoin:round;stroke-opacity:1;stroke-dasharray:none"
         inkscape:connector-curvature="0" />
      <text
         id="text5612"
         style="font-size:65.63090515px;font-style:normal;font-weight:normal;text-align:start;text-anchor:start;fill:#000000;font-family:Arial"
         y="97.826813"
         x="452.90491"
         xml:space="preserve">4</text>
      <path
         id="path5614"
         d="m 67.387953,260.90279 -67.28459724,0 0,-122.23657 134.56919424,0 0,122.23657 -67.284597,0 z"
         style="fill:#e6e6ff;fill-opacity:1;fill-rule:evenodd;stroke:none"
         inkscape:connector-curvature="0" />
      <path
         id="path5616"
         d="m 124.13026,138.66622 10.54229,9.57613"
         style="fill:none;stroke:#000000;stroke-width:0.10335576px;stroke-linecap:round;stroke-linejoin:round;stroke-opacity:1;stroke-dasharray:none"
         inkscape:connector-curvature="0" />
      <path
         id="path5618"
         d="m 93.123536,138.66622 41.549014,37.74124"
         style="fill:none;stroke:#000000;stroke-width:0.10335576px;stroke-linecap:round;stroke-linejoin:round;stroke-opacity:1;stroke-dasharray:none"
         inkscape:connector-curvature="0" />
      <path
         id="path5620"
         d="m 62.116809,138.66622 72.555741,65.90635"
         style="fill:none;stroke:#000000;stroke-width:0.10335576px;stroke-linecap:round;stroke-linejoin:round;stroke-opacity:1;stroke-dasharray:none"
         inkscape:connector-curvature="0" />
      <path
         id="path5622"
         d="M 31.110083,138.66622 134.67255,232.73768"
         style="fill:none;stroke:#000000;stroke-width:0.10335576px;stroke-linecap:round;stroke-linejoin:round;stroke-opacity:1;stroke-dasharray:none"
         inkscape:connector-curvature="0" />
      <path
         id="path5624"
         d="M 0.10335576,138.66622 134.67255,260.90279"
         style="fill:none;stroke:#000000;stroke-width:0.10335576px;stroke-linecap:round;stroke-linejoin:round;stroke-opacity:1;stroke-dasharray:none"
         inkscape:connector-curvature="0" />
      <path
         id="path5626"
         d="M 0.10335576,166.83133 103.66582,260.90279"
         style="fill:none;stroke:#000000;stroke-width:0.10335576px;stroke-linecap:round;stroke-linejoin:round;stroke-opacity:1;stroke-dasharray:none"
         inkscape:connector-curvature="0" />
      <path
         id="path5628"
         d="M 0.10335576,194.99643 72.659097,260.90279"
         style="fill:none;stroke:#000000;stroke-width:0.10335576px;stroke-linecap:round;stroke-linejoin:round;stroke-opacity:1;stroke-dasharray:none"
         inkscape:connector-curvature="0" />
      <path
         id="path5630"
         d="M 0.10335576,223.16154 41.65237,260.90279"
         style="fill:none;stroke:#000000;stroke-width:0.10335576px;stroke-linecap:round;stroke-linejoin:round;stroke-opacity:1;stroke-dasharray:none"
         inkscape:connector-curvature="0" />
      <path
         id="path5632"
         d="M 0.10335576,251.32665 10.645643,260.90279"
         style="fill:none;stroke:#000000;stroke-width:0.10335576px;stroke-linecap:round;stroke-linejoin:round;stroke-opacity:1;stroke-dasharray:none"
         inkscape:connector-curvature="0" />
      <path
         id="path5634"
         d="m 67.387953,260.90279 -67.28459724,0 0,-122.23657 134.56919424,0 0,122.23657 -67.284597,0"
         style="fill:none;stroke:#808080;stroke-width:0.10335576px;stroke-linecap:round;stroke-linejoin:round;stroke-opacity:1;stroke-dasharray:none"
         inkscape:connector-curvature="0" />
      <text
         id="text5636"
         style="font-size:65.63090515px;font-style:normal;font-weight:normal;text-align:start;text-anchor:start;fill:#000000;font-family:Arial"
         y="220.06339"
         x="49.300697"
         xml:space="preserve">5</text>
      <path
         id="path5638"
         d="m 201.95715,260.90279 -67.2846,0 0,-122.23657 134.56919,0 0,122.23657 -67.28459,0 z"
         style="fill:#e6e6ff;fill-opacity:1;fill-rule:evenodd;stroke:none"
         inkscape:connector-curvature="0" />
      <path
         id="path5640"
         d="m 258.69946,138.66622 10.54228,9.57613"
         style="fill:none;stroke:#000000;stroke-width:0.10335576px;stroke-linecap:round;stroke-linejoin:round;stroke-opacity:1;stroke-dasharray:none"
         inkscape:connector-curvature="0" />
      <path
         id="path5642"
         d="m 227.69273,138.66622 41.54901,37.74124"
         style="fill:none;stroke:#000000;stroke-width:0.10335576px;stroke-linecap:round;stroke-linejoin:round;stroke-opacity:1;stroke-dasharray:none"
         inkscape:connector-curvature="0" />
      <path
         id="path5644"
         d="m 196.686,138.66622 72.55574,65.90635"
         style="fill:none;stroke:#000000;stroke-width:0.10335576px;stroke-linecap:round;stroke-linejoin:round;stroke-opacity:1;stroke-dasharray:none"
         inkscape:connector-curvature="0" />
      <path
         id="path5646"
         d="m 165.67928,138.66622 103.56246,94.07146"
         style="fill:none;stroke:#000000;stroke-width:0.10335576px;stroke-linecap:round;stroke-linejoin:round;stroke-opacity:1;stroke-dasharray:none"
         inkscape:connector-curvature="0" />
      <path
         id="path5648"
         d="M 134.67255,138.66622 269.24174,260.90279"
         style="fill:none;stroke:#000000;stroke-width:0.10335576px;stroke-linecap:round;stroke-linejoin:round;stroke-opacity:1;stroke-dasharray:none"
         inkscape:connector-curvature="0" />
      <path
         id="path5650"
         d="m 134.67255,166.83133 103.56247,94.07146"
         style="fill:none;stroke:#000000;stroke-width:0.10335576px;stroke-linecap:round;stroke-linejoin:round;stroke-opacity:1;stroke-dasharray:none"
         inkscape:connector-curvature="0" />
      <path
         id="path5652"
         d="m 134.67255,194.99643 72.55574,65.90636"
         style="fill:none;stroke:#000000;stroke-width:0.10335576px;stroke-linecap:round;stroke-linejoin:round;stroke-opacity:1;stroke-dasharray:none"
         inkscape:connector-curvature="0" />
      <path
         id="path5654"
         d="m 134.67255,223.16154 41.54901,37.74125"
         style="fill:none;stroke:#000000;stroke-width:0.10335576px;stroke-linecap:round;stroke-linejoin:round;stroke-opacity:1;stroke-dasharray:none"
         inkscape:connector-curvature="0" />
      <path
         id="path5656"
         d="m 134.67255,251.32665 10.54229,9.57614"
         style="fill:none;stroke:#000000;stroke-width:0.10335576px;stroke-linecap:round;stroke-linejoin:round;stroke-opacity:1;stroke-dasharray:none"
         inkscape:connector-curvature="0" />
      <path
         id="path5658"
         d="m 201.95715,260.90279 -67.2846,0 0,-122.23657 134.56919,0 0,122.23657 -67.28459,0"
         style="fill:none;stroke:#808080;stroke-width:0.10335576px;stroke-linecap:round;stroke-linejoin:round;stroke-opacity:1;stroke-dasharray:none"
         inkscape:connector-curvature="0" />
      <text
         id="text5660"
         style="font-size:65.63090515px;font-style:normal;font-weight:normal;text-align:start;text-anchor:start;fill:#000000;font-family:Arial"
         y="220.06339"
         x="183.86989"
         xml:space="preserve">6</text>
      <path
         id="path5662"
         d="m 336.52634,260.90279 -67.2846,0 0,-122.23657 134.46584,0 0,122.23657 -67.18124,0 z"
         style="fill:#cfe7f5;fill-opacity:1;fill-rule:evenodd;stroke:none"
         inkscape:connector-curvature="0" />
      <path
         id="path5664"
         d="m 336.52634,260.90279 -67.2846,0 0,-122.23657 134.46584,0 0,122.23657 -67.18124,0"
         style="fill:none;stroke:#808080;stroke-width:0.10335576px;stroke-linecap:round;stroke-linejoin:round;stroke-opacity:1;stroke-dasharray:none"
         inkscape:connector-curvature="0" />
      <text
         id="text5666"
         style="font-size:65.63090515px;font-style:normal;font-weight:normal;text-align:start;text-anchor:start;fill:#000000;font-family:Arial"
         y="220.06339"
         x="318.33572"
         xml:space="preserve">7</text>
      <path
         id="path5668"
         d="m 470.99218,260.90279 -67.2846,0 0,-122.23657 134.5692,0 0,122.23657 -67.2846,0 z"
         style="fill:#cfe7f5;fill-opacity:1;fill-rule:evenodd;stroke:none"
         inkscape:connector-curvature="0" />
      <path
         id="path5670"
         d="m 470.99218,260.90279 -67.2846,0 0,-122.23657 134.5692,0 0,122.23657 -67.2846,0"
         style="fill:none;stroke:#808080;stroke-width:0.10335576px;stroke-linecap:round;stroke-linejoin:round;stroke-opacity:1;stroke-dasharray:none"
         inkscape:connector-curvature="0" />
      <text
         id="text5672"
         style="font-size:65.63090515px;font-style:normal;font-weight:normal;text-align:start;text-anchor:start;fill:#000000;font-family:Arial"
         y="220.06339"
         x="452.90491"
         xml:space="preserve">8</text>
      <path
         id="path5674"
         d="m 67.387953,383.04547 -67.28459724,0 0,-122.14268 134.56919424,0 0,122.14268 -67.284597,0 z"
         style="fill:#e6e6ff;fill-opacity:1;fill-rule:evenodd;stroke:none"
         inkscape:connector-curvature="0" />
      <path
         id="path5676"
         d="m 124.13026,260.90279 10.54229,9.57613"
         style="fill:none;stroke:#000000;stroke-width:0.10335576px;stroke-linecap:round;stroke-linejoin:round;stroke-opacity:1;stroke-dasharray:none"
         inkscape:connector-curvature="0" />
      <path
         id="path5678"
         d="m 93.123536,260.90279 41.549014,37.74124"
         style="fill:none;stroke:#000000;stroke-width:0.10335576px;stroke-linecap:round;stroke-linejoin:round;stroke-opacity:1;stroke-dasharray:none"
         inkscape:connector-curvature="0" />
      <path
         id="path5680"
         d="m 62.116809,260.90279 72.555741,65.90635"
         style="fill:none;stroke:#000000;stroke-width:0.10335576px;stroke-linecap:round;stroke-linejoin:round;stroke-opacity:1;stroke-dasharray:none"
         inkscape:connector-curvature="0" />
      <path
         id="path5682"
         d="M 31.110083,260.90279 134.67255,354.97425"
         style="fill:none;stroke:#000000;stroke-width:0.10335576px;stroke-linecap:round;stroke-linejoin:round;stroke-opacity:1;stroke-dasharray:none"
         inkscape:connector-curvature="0" />
      <path
         id="path5684"
         d="M 0.10335576,260.90279 134.56919,383.04547"
         style="fill:none;stroke:#000000;stroke-width:0.10335576px;stroke-linecap:round;stroke-linejoin:round;stroke-opacity:1;stroke-dasharray:none"
         inkscape:connector-curvature="0" />
      <path
         id="path5686"
         d="M 0.10335576,289.0679 103.56247,383.04547"
         style="fill:none;stroke:#000000;stroke-width:0.10335576px;stroke-linecap:round;stroke-linejoin:round;stroke-opacity:1;stroke-dasharray:none"
         inkscape:connector-curvature="0" />
      <path
         id="path5688"
         d="M 0.10335576,317.233 72.555741,383.04547"
         style="fill:none;stroke:#000000;stroke-width:0.10335576px;stroke-linecap:round;stroke-linejoin:round;stroke-opacity:1;stroke-dasharray:none"
         inkscape:connector-curvature="0" />
      <path
         id="path5690"
         d="M 0.10335576,345.39811 41.549014,383.04547"
         style="fill:none;stroke:#000000;stroke-width:0.10335576px;stroke-linecap:round;stroke-linejoin:round;stroke-opacity:1;stroke-dasharray:none"
         inkscape:connector-curvature="0" />
      <path
         id="path5692"
         d="M 0.10335576,373.56322 10.542287,383.04547"
         style="fill:none;stroke:#000000;stroke-width:0.10335576px;stroke-linecap:round;stroke-linejoin:round;stroke-opacity:1;stroke-dasharray:none"
         inkscape:connector-curvature="0" />
      <path
         id="path5694"
         d="m 67.387953,383.04547 -67.28459724,0 0,-122.14268 134.56919424,0 0,122.14268 -67.284597,0"
         style="fill:none;stroke:#808080;stroke-width:0.10335576px;stroke-linecap:round;stroke-linejoin:round;stroke-opacity:1;stroke-dasharray:none"
         inkscape:connector-curvature="0" />
      <text
         id="text5696"
         style="font-size:65.63090515px;font-style:normal;font-weight:normal;text-align:start;text-anchor:start;fill:#000000;font-family:Arial"
         y="342.29996"
         x="49.300697"
         xml:space="preserve">9</text>
      <path
         id="path5698"
         d="m 201.95715,383.04547 -67.2846,0 0,-122.14268 134.56919,0 0,122.14268 -67.28459,0 z"
         style="fill:#e6e6ff;fill-opacity:1;fill-rule:evenodd;stroke:none"
         inkscape:connector-curvature="0" />
      <path
         id="path5700"
         d="m 258.69946,260.90279 10.54228,9.57613"
         style="fill:none;stroke:#000000;stroke-width:0.10335576px;stroke-linecap:round;stroke-linejoin:round;stroke-opacity:1;stroke-dasharray:none"
         inkscape:connector-curvature="0" />
      <path
         id="path5702"
         d="m 227.69273,260.90279 41.54901,37.74124"
         style="fill:none;stroke:#000000;stroke-width:0.10335576px;stroke-linecap:round;stroke-linejoin:round;stroke-opacity:1;stroke-dasharray:none"
         inkscape:connector-curvature="0" />
      <path
         id="path5704"
         d="m 196.686,260.90279 72.55574,65.90635"
         style="fill:none;stroke:#000000;stroke-width:0.10335576px;stroke-linecap:round;stroke-linejoin:round;stroke-opacity:1;stroke-dasharray:none"
         inkscape:connector-curvature="0" />
      <path
         id="path5706"
         d="m 165.67928,260.90279 103.56246,94.07146"
         style="fill:none;stroke:#000000;stroke-width:0.10335576px;stroke-linecap:round;stroke-linejoin:round;stroke-opacity:1;stroke-dasharray:none"
         inkscape:connector-curvature="0" />
      <path
         id="path5708"
         d="M 134.67255,260.90279 269.13839,383.04547"
         style="fill:none;stroke:#000000;stroke-width:0.10335576px;stroke-linecap:round;stroke-linejoin:round;stroke-opacity:1;stroke-dasharray:none"
         inkscape:connector-curvature="0" />
      <path
         id="path5710"
         d="m 134.67255,289.0679 103.45911,93.97757"
         style="fill:none;stroke:#000000;stroke-width:0.10335576px;stroke-linecap:round;stroke-linejoin:round;stroke-opacity:1;stroke-dasharray:none"
         inkscape:connector-curvature="0" />
      <path
         id="path5712"
         d="m 134.67255,317.233 72.45239,65.81247"
         style="fill:none;stroke:#000000;stroke-width:0.10335576px;stroke-linecap:round;stroke-linejoin:round;stroke-opacity:1;stroke-dasharray:none"
         inkscape:connector-curvature="0" />
      <path
         id="path5714"
         d="m 134.67255,345.39811 41.44566,37.64736"
         style="fill:none;stroke:#000000;stroke-width:0.10335576px;stroke-linecap:round;stroke-linejoin:round;stroke-opacity:1;stroke-dasharray:none"
         inkscape:connector-curvature="0" />
      <path
         id="path5716"
         d="m 134.67255,373.56322 10.43893,9.48225"
         style="fill:none;stroke:#000000;stroke-width:0.10335576px;stroke-linecap:round;stroke-linejoin:round;stroke-opacity:1;stroke-dasharray:none"
         inkscape:connector-curvature="0" />
      <path
         id="path5718"
         d="m 201.95715,383.04547 -67.2846,0 0,-122.14268 134.56919,0 0,122.14268 -67.28459,0"
         style="fill:none;stroke:#808080;stroke-width:0.10335576px;stroke-linecap:round;stroke-linejoin:round;stroke-opacity:1;stroke-dasharray:none"
         inkscape:connector-curvature="0" />
      <text
         id="text5720"
         style="font-size:65.63090515px;font-style:normal;font-weight:normal;text-align:start;text-anchor:start;fill:#000000;font-family:Arial"
         y="342.29996"
         x="165.67928"
         xml:space="preserve">10</text>
      <path
         id="path5722"
         d="m 336.52634,383.04547 -67.2846,0 0,-122.14268 134.46584,0 0,122.14268 -67.18124,0 z"
         style="fill:#cfe7f5;fill-opacity:1;fill-rule:evenodd;stroke:none"
         inkscape:connector-curvature="0" />
      <path
         id="path5724"
         d="m 336.52634,383.04547 -67.2846,0 0,-122.14268 134.46584,0 0,122.14268 -67.18124,0"
         style="fill:none;stroke:#808080;stroke-width:0.10335576px;stroke-linecap:round;stroke-linejoin:round;stroke-opacity:1;stroke-dasharray:none"
         inkscape:connector-curvature="0" />
      <text
         id="text5726"
         style="font-size:65.63090515px;font-style:normal;font-weight:normal;text-align:start;text-anchor:start;fill:#000000;font-family:Arial"
         y="342.29996"
         x="302.62564"
         xml:space="preserve">11</text>
      <path
         id="path5728"
         d="m 470.99218,383.04547 -67.2846,0 0,-122.14268 134.5692,0 0,122.14268 -67.2846,0 z"
         style="fill:#cfe7f5;fill-opacity:1;fill-rule:evenodd;stroke:none"
         inkscape:connector-curvature="0" />
      <path
         id="path5730"
         d="m 470.99218,383.04547 -67.2846,0 0,-122.14268 134.5692,0 0,122.14268 -67.2846,0"
         style="fill:none;stroke:#808080;stroke-width:0.10335576px;stroke-linecap:round;stroke-linejoin:round;stroke-opacity:1;stroke-dasharray:none"
         inkscape:connector-curvature="0" />
      <text
         id="text5732"
         style="font-size:65.63090515px;font-style:normal;font-weight:normal;text-align:start;text-anchor:start;fill:#000000;font-family:Arial"
         y="342.29996"
         x="434.71432"
         xml:space="preserve">12</text>
      <path
         id="path5734"
         d="m 67.387953,505.28204 -67.28459724,0 0,-122.23657 134.56919424,0 0,122.23657 -67.284597,0 z"
         style="fill:#cfe7f5;fill-opacity:1;fill-rule:evenodd;stroke:none"
         inkscape:connector-curvature="0" />
      <path
         id="path5736"
         d="m 67.387953,505.28204 -67.28459724,0 0,-122.23657 134.56919424,0 0,122.23657 -67.284597,0"
         style="fill:none;stroke:#808080;stroke-width:0.10335576px;stroke-linecap:round;stroke-linejoin:round;stroke-opacity:1;stroke-dasharray:none"
         inkscape:connector-curvature="0" />
      <text
         id="text5738"
         style="font-size:65.63090515px;font-style:normal;font-weight:normal;text-align:start;text-anchor:start;fill:#000000;font-family:Arial"
         y="464.44263"
         x="31.110083"
         xml:space="preserve">13</text>
      <path
         id="path5740"
         d="m 201.95715,505.28204 -67.2846,0 0,-122.23657 134.56919,0 0,122.23657 -67.28459,0 z"
         style="fill:#cfe7f5;fill-opacity:1;fill-rule:evenodd;stroke:none"
         inkscape:connector-curvature="0" />
      <path
         id="path5742"
         d="m 201.95715,505.28204 -67.2846,0 0,-122.23657 134.56919,0 0,122.23657 -67.28459,0"
         style="fill:none;stroke:#808080;stroke-width:0.10335576px;stroke-linecap:round;stroke-linejoin:round;stroke-opacity:1;stroke-dasharray:none"
         inkscape:connector-curvature="0" />
      <text
         id="text5744"
         style="font-size:65.63090515px;font-style:normal;font-weight:normal;text-align:start;text-anchor:start;fill:#000000;font-family:Arial"
         y="464.44263"
         x="165.67928"
         xml:space="preserve">14</text>
      <path
         id="path5746"
         d="m 336.52634,505.28204 -67.2846,0 0,-122.23657 134.46584,0 0,122.23657 -67.18124,0 z"
         style="fill:#cfe7f5;fill-opacity:1;fill-rule:evenodd;stroke:none"
         inkscape:connector-curvature="0" />
      <path
         id="path5748"
         d="m 336.52634,505.28204 -67.2846,0 0,-122.23657 134.46584,0 0,122.23657 -67.18124,0"
         style="fill:none;stroke:#808080;stroke-width:0.10335576px;stroke-linecap:round;stroke-linejoin:round;stroke-opacity:1;stroke-dasharray:none"
         inkscape:connector-curvature="0" />
      <text
         id="text5750"
         style="font-size:65.63090515px;font-style:normal;font-weight:normal;text-align:start;text-anchor:start;fill:#000000;font-family:Arial"
         y="464.44263"
         x="300.14511"
         xml:space="preserve">15</text>
      <path
         id="path5752"
         d="m 470.99218,505.28204 -67.2846,0 0,-122.23657 134.5692,0 0,122.23657 -67.2846,0 z"
         style="fill:#cfe7f5;fill-opacity:1;fill-rule:evenodd;stroke:none"
         inkscape:connector-curvature="0" />
      <path
         id="path5754"
         d="m 470.99218,505.28204 -67.2846,0 0,-122.23657 134.5692,0 0,122.23657 -67.2846,0"
         style="fill:none;stroke:#808080;stroke-width:0.10335576px;stroke-linecap:round;stroke-linejoin:round;stroke-opacity:1;stroke-dasharray:none"
         inkscape:connector-curvature="0" />
      <text
         id="text5756"
         style="font-size:65.63090515px;font-style:normal;font-weight:normal;text-align:start;text-anchor:start;fill:#000000;font-family:Arial"
         y="464.44263"
         x="434.71432"
         xml:space="preserve">16</text>
      <path
         id="path5758"
         d="m 120.92623,299.01957 -36.691289,0 0,-67.9718 73.382589,0 0,67.9718 -36.6913,0 z"
         style="fill:#ccffff;fill-opacity:1;fill-rule:evenodd;stroke:none"
         inkscape:connector-curvature="0" />
      <path
         id="path5760"
         d="m 120.92623,299.01957 -36.691289,0 0,-67.9718 73.382589,0 0,67.9718 -36.6913,0"
         style="fill:none;stroke:#808080;stroke-width:0.10335576px;stroke-linecap:round;stroke-linejoin:round;stroke-opacity:1;stroke-dasharray:none"
         inkscape:connector-curvature="0" />
      <path
         id="path5762"
         d="m 118.75576,277.80185 c -2.37718,0 -4.34094,-0.46942 -6.40805,-1.50214 -1.96376,-1.1266 -3.41074,-2.44097 -4.65101,-4.22476 -1.13692,-1.78379 -1.65369,-3.66147 -1.65369,-5.72691 0,-2.06544 0.51677,-3.94311 1.65369,-5.7269 1.24027,-1.78379 2.68725,-3.09817 4.65101,-4.22477 2.06711,-1.03272 4.03087,-1.50214 6.40805,-1.50214 2.27383,0 4.23759,0.46942 6.3047,1.50214 1.96376,1.1266 3.41074,2.44098 4.65101,4.22477 1.13692,1.78379 1.6537,3.66146 1.6537,5.7269 0,2.06544 -0.51678,3.94312 -1.6537,5.72691 -1.24027,1.78379 -2.68725,3.09816 -4.65101,4.22476 -2.06711,1.03272 -4.03087,1.50214 -6.3047,1.50214 l 0,0 z"
         style="fill:#9999ff;fill-opacity:1;fill-rule:evenodd;stroke:none"
         inkscape:connector-curvature="0" />
      <path
         id="path5764"
         d="m 118.75576,277.80185 c -2.37718,0 -4.34094,-0.46942 -6.40805,-1.50214 -1.96376,-1.1266 -3.41074,-2.44097 -4.65101,-4.22476 -1.13692,-1.78379 -1.65369,-3.66147 -1.65369,-5.72691 0,-2.06544 0.51677,-3.94311 1.65369,-5.7269 1.24027,-1.78379 2.68725,-3.09817 4.65101,-4.22477 2.06711,-1.03272 4.03087,-1.50214 6.40805,-1.50214 2.27383,0 4.23759,0.46942 6.3047,1.50214 1.96376,1.1266 3.41074,2.44098 4.65101,4.22477 1.13692,1.78379 1.6537,3.66146 1.6537,5.7269 0,2.06544 -0.51678,3.94312 -1.6537,5.72691 -1.24027,1.78379 -2.68725,3.09816 -4.65101,4.22476 -2.06711,1.03272 -4.03087,1.50214 -6.3047,1.50214"
         style="fill:none;stroke:#808080;stroke-width:0.10335576px;stroke-linecap:round;stroke-linejoin:round;stroke-opacity:1;stroke-dasharray:none"
         inkscape:connector-curvature="0" />
      <path
         id="path5766"
         d="m 29.146323,599.07186 c -2.377182,0 -4.340942,-0.46942 -6.408057,-1.50214 -1.963759,-1.12661 -3.41074,-2.44098 -4.651009,-4.22477 -1.136913,-1.78379 -1.653692,-3.66146 -1.653692,-5.72691 0,-2.06544 0.516779,-3.94311 1.653692,-5.7269 1.240269,-1.78379 2.68725,-3.09816 4.651009,-4.22477 2.067115,-1.03272 4.030875,-1.50214 6.304701,-1.50214 2.377183,0 4.340942,0.46942 6.408057,1.50214 1.96376,1.12661 3.41074,2.44098 4.651009,4.22477 1.136914,1.78379 1.653692,3.66146 1.653692,5.7269 0,2.06545 -0.516778,3.94312 -1.653692,5.72691 -1.240269,1.78379 -2.687249,3.09816 -4.651009,4.22477 -2.067115,1.03272 -4.030874,1.50214 -6.304701,1.50214 l 0,0 z"
         style="fill:#9999ff;fill-opacity:1;fill-rule:evenodd;stroke:none"
         inkscape:connector-curvature="0" />
      <path
         id="path5768"
         d="m 29.146323,599.07186 c -2.377182,0 -4.340942,-0.46942 -6.408057,-1.50214 -1.963759,-1.12661 -3.41074,-2.44098 -4.651009,-4.22477 -1.136913,-1.78379 -1.653692,-3.66146 -1.653692,-5.72691 0,-2.06544 0.516779,-3.94311 1.653692,-5.7269 1.240269,-1.78379 2.68725,-3.09816 4.651009,-4.22477 2.067115,-1.03272 4.030875,-1.50214 6.304701,-1.50214 2.377183,0 4.340942,0.46942 6.408057,1.50214 1.96376,1.12661 3.41074,2.44098 4.651009,4.22477 1.136914,1.78379 1.653692,3.66146 1.653692,5.7269 0,2.06545 -0.516778,3.94312 -1.653692,5.72691 -1.240269,1.78379 -2.687249,3.09816 -4.651009,4.22477 -2.067115,1.03272 -4.030874,1.50214 -6.304701,1.50214"
         style="fill:none;stroke:#808080;stroke-width:0.10335576px;stroke-linecap:round;stroke-linejoin:round;stroke-opacity:1;stroke-dasharray:none"
         inkscape:connector-curvature="0" />
      <text
         id="text5770"
         style="font-size:29.14632416px;font-style:normal;font-weight:normal;text-align:start;text-anchor:start;fill:#000000;font-family:Times New Roman"
         y="552.13"
         x="60.773186"
         xml:space="preserve">Area of interest</text>
      <text
         id="text5772"
         style="font-size:29.14632416px;font-style:normal;font-weight:normal;text-align:start;text-anchor:start;fill:#000000;font-family:Times New Roman"
         y="599.82294"
         x="60.773186"
         xml:space="preserve">Current Entity</text>
      <path
         id="path5774"
         d="m 249.08737,182.41602 c -2.37718,0 -4.34094,-0.46942 -6.40805,-1.50214 -1.96376,-1.1266 -3.41074,-2.44098 -4.65101,-4.22477 -1.13692,-1.78379 -1.6537,-3.66146 -1.6537,-5.7269 0,-2.06544 0.51678,-3.94312 1.6537,-5.72691 1.24027,-1.78379 2.68725,-3.09816 4.65101,-4.22476 2.06711,-1.03272 4.03087,-1.50214 6.40805,-1.50214 2.27383,0 4.23759,0.46942 6.3047,1.50214 1.96376,1.1266 3.41074,2.44097 4.65101,4.22476 1.13692,1.78379 1.65369,3.66147 1.65369,5.72691 0,2.06544 -0.51677,3.94311 -1.65369,5.7269 -1.24027,1.78379 -2.68725,3.09817 -4.65101,4.22477 -2.06711,1.03272 -4.03087,1.50214 -6.3047,1.50214 l 0,0 z"
         style="fill:#ffff66;fill-opacity:1;fill-rule:evenodd;stroke:none"
         inkscape:connector-curvature="0" />
      <path
         id="path5776"
         d="m 249.08737,182.41602 c -2.37718,0 -4.34094,-0.46942 -6.40805,-1.50214 -1.96376,-1.1266 -3.41074,-2.44098 -4.65101,-4.22477 -1.13692,-1.78379 -1.6537,-3.66146 -1.6537,-5.7269 0,-2.06544 0.51678,-3.94312 1.6537,-5.72691 1.24027,-1.78379 2.68725,-3.09816 4.65101,-4.22476 2.06711,-1.03272 4.03087,-1.50214 6.40805,-1.50214 2.27383,0 4.23759,0.46942 6.3047,1.50214 1.96376,1.1266 3.41074,2.44097 4.65101,4.22476 1.13692,1.78379 1.65369,3.66147 1.65369,5.72691 0,2.06544 -0.51677,3.94311 -1.65369,5.7269 -1.24027,1.78379 -2.68725,3.09817 -4.65101,4.22477 -2.06711,1.03272 -4.03087,1.50214 -6.3047,1.50214"
         style="fill:none;stroke:#808080;stroke-width:0.10335576px;stroke-linecap:round;stroke-linejoin:round;stroke-opacity:1;stroke-dasharray:none"
         inkscape:connector-curvature="0" />
      <path
         id="path5778"
         d="m 105.62958,231.04777 c -2.37718,0 -4.34094,-0.46942 -6.408054,-1.50214 -1.963759,-1.1266 -3.41074,-2.44097 -4.651009,-4.22476 -1.136913,-1.78379 -1.653692,-3.66147 -1.653692,-5.72691 0,-2.06544 0.516779,-3.94311 1.653692,-5.7269 1.240269,-1.78379 2.68725,-3.09817 4.651009,-4.22477 2.067114,-1.03272 4.030874,-1.50214 6.304704,-1.50214 2.37718,0 4.34094,0.46942 6.40805,1.50214 1.96376,1.1266 3.41074,2.44098 4.65101,4.22477 1.13692,1.78379 1.6537,3.66146 1.6537,5.7269 0,2.06544 -0.51678,3.94312 -1.6537,5.72691 -1.24027,1.78379 -2.68725,3.09816 -4.65101,4.22476 -2.06711,1.03272 -4.03087,1.50214 -6.3047,1.50214 l 0,0 z"
         style="fill:#ffff66;fill-opacity:1;fill-rule:evenodd;stroke:none"
         inkscape:connector-curvature="0" />
      <path
         id="path5780"
         d="m 105.62958,231.04777 c -2.37718,0 -4.34094,-0.46942 -6.408054,-1.50214 -1.963759,-1.1266 -3.41074,-2.44097 -4.651009,-4.22476 -1.136913,-1.78379 -1.653692,-3.66147 -1.653692,-5.72691 0,-2.06544 0.516779,-3.94311 1.653692,-5.7269 1.240269,-1.78379 2.68725,-3.09817 4.651009,-4.22477 2.067114,-1.03272 4.030874,-1.50214 6.304704,-1.50214 2.37718,0 4.34094,0.46942 6.40805,1.50214 1.96376,1.1266 3.41074,2.44098 4.65101,4.22477 1.13692,1.78379 1.6537,3.66146 1.6537,5.7269 0,2.06544 -0.51678,3.94312 -1.6537,5.72691 -1.24027,1.78379 -2.68725,3.09816 -4.65101,4.22476 -2.06711,1.03272 -4.03087,1.50214 -6.3047,1.50214"
         style="fill:none;stroke:#808080;stroke-width:0.10335576px;stroke-linecap:round;stroke-linejoin:round;stroke-opacity:1;stroke-dasharray:none"
         inkscape:connector-curvature="0" />
      <path
         id="path5782"
         d="m 315.64848,290.66392 c -2.37718,0 -4.34094,-0.46942 -6.40806,-1.50214 -1.96376,-1.1266 -3.41074,-2.44098 -4.65101,-4.22477 -1.13691,-1.78379 -1.65369,-3.66146 -1.65369,-5.7269 0,-2.06544 0.51678,-3.94312 1.65369,-5.72691 1.24027,-1.78379 2.68725,-3.09816 4.65101,-4.22476 2.06712,-1.03272 4.03088,-1.50214 6.40806,-1.50214 2.27383,0 4.23759,0.46942 6.3047,1.50214 1.96376,1.1266 3.41074,2.44097 4.65101,4.22476 1.13691,1.78379 1.65369,3.66147 1.65369,5.72691 0,2.06544 -0.51678,3.94311 -1.65369,5.7269 -1.24027,1.78379 -2.68725,3.09817 -4.65101,4.22477 -2.06711,1.03272 -4.03087,1.50214 -6.3047,1.50214 l 0,0 z"
         style="fill:#ffff66;fill-opacity:1;fill-rule:evenodd;stroke:none"
         inkscape:connector-curvature="0" />
      <path
         id="path5784"
         d="m 315.64848,290.66392 c -2.37718,0 -4.34094,-0.46942 -6.40806,-1.50214 -1.96376,-1.1266 -3.41074,-2.44098 -4.65101,-4.22477 -1.13691,-1.78379 -1.65369,-3.66146 -1.65369,-5.7269 0,-2.06544 0.51678,-3.94312 1.65369,-5.72691 1.24027,-1.78379 2.68725,-3.09816 4.65101,-4.22476 2.06712,-1.03272 4.03088,-1.50214 6.40806,-1.50214 2.27383,0 4.23759,0.46942 6.3047,1.50214 1.96376,1.1266 3.41074,2.44097 4.65101,4.22476 1.13691,1.78379 1.65369,3.66147 1.65369,5.72691 0,2.06544 -0.51678,3.94311 -1.65369,5.7269 -1.24027,1.78379 -2.68725,3.09817 -4.65101,4.22477 -2.06711,1.03272 -4.03087,1.50214 -6.3047,1.50214"
         style="fill:none;stroke:#808080;stroke-width:0.10335576px;stroke-linecap:round;stroke-linejoin:round;stroke-opacity:1;stroke-dasharray:none"
         inkscape:connector-curvature="0" />
      <path
         id="path5786"
         d="m 355.02702,134.7231 c -2.37718,0 -4.34094,-0.46942 -6.40805,-1.50214 -1.96376,-1.1266 -3.41074,-2.44097 -4.65101,-4.22476 -1.13692,-1.78379 -1.6537,-3.66147 -1.6537,-5.72691 0,-2.06544 0.51678,-3.94311 1.6537,-5.7269 1.24027,-1.78379 2.68725,-3.09817 4.65101,-4.22477 2.06711,-1.03272 4.03087,-1.50214 6.40805,-1.50214 2.27383,0 4.23759,0.46942 6.3047,1.50214 1.96376,1.1266 3.41074,2.44098 4.65101,4.22477 1.13692,1.78379 1.65369,3.66146 1.65369,5.7269 0,2.06544 -0.51677,3.94312 -1.65369,5.72691 -1.24027,1.78379 -2.68725,3.09816 -4.65101,4.22476 -2.06711,1.03272 -4.03087,1.50214 -6.3047,1.50214 l 0,0 z"
         style="fill:#ffff66;fill-opacity:1;fill-rule:evenodd;stroke:none"
         inkscape:connector-curvature="0" />
      <path
         id="path5788"
         d="m 355.02702,134.7231 c -2.37718,0 -4.34094,-0.46942 -6.40805,-1.50214 -1.96376,-1.1266 -3.41074,-2.44097 -4.65101,-4.22476 -1.13692,-1.78379 -1.6537,-3.66147 -1.6537,-5.72691 0,-2.06544 0.51678,-3.94311 1.6537,-5.7269 1.24027,-1.78379 2.68725,-3.09817 4.65101,-4.22477 2.06711,-1.03272 4.03087,-1.50214 6.40805,-1.50214 2.27383,0 4.23759,0.46942 6.3047,1.50214 1.96376,1.1266 3.41074,2.44098 4.65101,4.22477 1.13692,1.78379 1.65369,3.66146 1.65369,5.7269 0,2.06544 -0.51677,3.94312 -1.65369,5.72691 -1.24027,1.78379 -2.68725,3.09816 -4.65101,4.22476 -2.06711,1.03272 -4.03087,1.50214 -6.3047,1.50214"
         style="fill:none;stroke:#808080;stroke-width:0.10335576px;stroke-linecap:round;stroke-linejoin:round;stroke-opacity:1;stroke-dasharray:none"
         inkscape:connector-curvature="0" />
      <path
         id="path5790"
         d="m 407.53175,266.81746 c -2.37719,0 -4.34095,-0.46942 -6.40806,-1.50214 -1.96376,-1.1266 -3.41074,-2.44098 -4.65101,-4.22477 -1.13691,-1.78379 -1.65369,-3.66146 -1.65369,-5.7269 0,-2.06544 0.51678,-3.94312 1.65369,-5.72691 1.24027,-1.78379 2.68725,-3.09816 4.65101,-4.22476 2.06711,-1.03272 4.03087,-1.50214 6.40806,-1.50214 2.27382,0 4.23758,0.46942 6.3047,1.50214 1.96376,1.1266 3.41074,2.44097 4.65101,4.22476 1.13691,1.78379 1.65369,3.66147 1.65369,5.72691 0,2.06544 -0.51678,3.94311 -1.65369,5.7269 -1.24027,1.78379 -2.68725,3.09817 -4.65101,4.22477 -2.06712,1.03272 -4.03088,1.50214 -6.3047,1.50214 l 0,0 z"
         style="fill:#ffff66;fill-opacity:1;fill-rule:evenodd;stroke:none"
         inkscape:connector-curvature="0" />
      <path
         id="path5792"
         d="m 407.53175,266.81746 c -2.37719,0 -4.34095,-0.46942 -6.40806,-1.50214 -1.96376,-1.1266 -3.41074,-2.44098 -4.65101,-4.22477 -1.13691,-1.78379 -1.65369,-3.66146 -1.65369,-5.7269 0,-2.06544 0.51678,-3.94312 1.65369,-5.72691 1.24027,-1.78379 2.68725,-3.09816 4.65101,-4.22476 2.06711,-1.03272 4.03087,-1.50214 6.40806,-1.50214 2.27382,0 4.23758,0.46942 6.3047,1.50214 1.96376,1.1266 3.41074,2.44097 4.65101,4.22476 1.13691,1.78379 1.65369,3.66147 1.65369,5.72691 0,2.06544 -0.51678,3.94311 -1.65369,5.7269 -1.24027,1.78379 -2.68725,3.09817 -4.65101,4.22477 -2.06712,1.03272 -4.03088,1.50214 -6.3047,1.50214"
         style="fill:none;stroke:#808080;stroke-width:0.10335576px;stroke-linecap:round;stroke-linejoin:round;stroke-opacity:1;stroke-dasharray:none"
         inkscape:connector-curvature="0" />
      <path
         id="path5794"
         d="m 170.33029,135.66194 c -2.37719,0 -4.34095,-0.46942 -6.40806,-1.50214 -1.96376,-1.1266 -3.41074,-2.44098 -4.65101,-4.22477 -1.13691,-1.78379 -1.65369,-3.66146 -1.65369,-5.7269 0,-2.06544 0.51678,-3.94312 1.65369,-5.72691 1.24027,-1.78379 2.68725,-3.09816 4.65101,-4.22476 2.06711,-1.03272 4.03087,-1.50214 6.40806,-1.50214 2.27382,0 4.23758,0.46942 6.3047,1.50214 1.96376,1.1266 3.41074,2.44097 4.65101,4.22476 1.13691,1.78379 1.65369,3.66147 1.65369,5.72691 0,2.06544 -0.51678,3.94311 -1.65369,5.7269 -1.24027,1.78379 -2.68725,3.09817 -4.65101,4.22477 -2.06712,1.03272 -4.03088,1.50214 -6.3047,1.50214 l 0,0 z"
         style="fill:#ffff66;fill-opacity:1;fill-rule:evenodd;stroke:none"
         inkscape:connector-curvature="0" />
      <path
         id="path5796"
         d="m 170.33029,135.66194 c -2.37719,0 -4.34095,-0.46942 -6.40806,-1.50214 -1.96376,-1.1266 -3.41074,-2.44098 -4.65101,-4.22477 -1.13691,-1.78379 -1.65369,-3.66146 -1.65369,-5.7269 0,-2.06544 0.51678,-3.94312 1.65369,-5.72691 1.24027,-1.78379 2.68725,-3.09816 4.65101,-4.22476 2.06711,-1.03272 4.03087,-1.50214 6.40806,-1.50214 2.27382,0 4.23758,0.46942 6.3047,1.50214 1.96376,1.1266 3.41074,2.44097 4.65101,4.22476 1.13691,1.78379 1.65369,3.66147 1.65369,5.72691 0,2.06544 -0.51678,3.94311 -1.65369,5.7269 -1.24027,1.78379 -2.68725,3.09817 -4.65101,4.22477 -2.06712,1.03272 -4.03088,1.50214 -6.3047,1.50214"
         style="fill:none;stroke:#808080;stroke-width:0.10335576px;stroke-linecap:round;stroke-linejoin:round;stroke-opacity:1;stroke-dasharray:none"
         inkscape:connector-curvature="0" />
      <path
         id="path5798"
         d="m 250.01757,433.74267 c -2.37718,0 -4.34094,-0.46942 -6.40805,-1.50214 -1.96376,-1.1266 -3.41074,-2.44098 -4.65101,-4.22477 -1.13692,-1.78379 -1.65369,-3.66146 -1.65369,-5.7269 0,-2.06544 0.51677,-3.94312 1.65369,-5.72691 1.24027,-1.78379 2.68725,-3.09816 4.65101,-4.22476 2.06711,-1.03272 4.03087,-1.50214 6.40805,-1.50214 2.27383,0 4.23759,0.46942 6.30471,1.50214 1.96375,1.1266 3.41074,2.44097 4.651,4.22476 1.13692,1.78379 1.6537,3.66147 1.6537,5.72691 0,2.06544 -0.51678,3.94311 -1.6537,5.7269 -1.24026,1.78379 -2.68725,3.09817 -4.651,4.22477 -2.06712,1.03272 -4.03088,1.50214 -6.30471,1.50214 l 0,0 z"
         style="fill:#ffff66;fill-opacity:1;fill-rule:evenodd;stroke:none"
         inkscape:connector-curvature="0" />
      <path
         id="path5800"
         d="m 250.01757,433.74267 c -2.37718,0 -4.34094,-0.46942 -6.40805,-1.50214 -1.96376,-1.1266 -3.41074,-2.44098 -4.65101,-4.22477 -1.13692,-1.78379 -1.65369,-3.66146 -1.65369,-5.7269 0,-2.06544 0.51677,-3.94312 1.65369,-5.72691 1.24027,-1.78379 2.68725,-3.09816 4.65101,-4.22476 2.06711,-1.03272 4.03087,-1.50214 6.40805,-1.50214 2.27383,0 4.23759,0.46942 6.30471,1.50214 1.96375,1.1266 3.41074,2.44097 4.651,4.22476 1.13692,1.78379 1.6537,3.66147 1.6537,5.72691 0,2.06544 -0.51678,3.94311 -1.6537,5.7269 -1.24026,1.78379 -2.68725,3.09817 -4.651,4.22477 -2.06712,1.03272 -4.03088,1.50214 -6.30471,1.50214"
         style="fill:none;stroke:#808080;stroke-width:0.10335576px;stroke-linecap:round;stroke-linejoin:round;stroke-opacity:1;stroke-dasharray:none"
         inkscape:connector-curvature="0" />
      <path
         id="path5802"
         d="m 315.64848,420.8806 c -2.37718,0 -4.34094,-0.46942 -6.40806,-1.50214 -1.96376,-1.1266 -3.41074,-2.44097 -4.65101,-4.22476 -1.13691,-1.78379 -1.65369,-3.66147 -1.65369,-5.72691 0,-2.06544 0.51678,-3.94311 1.65369,-5.7269 1.24027,-1.78379 2.68725,-3.09817 4.65101,-4.22477 2.06712,-1.03272 4.03088,-1.50214 6.40806,-1.50214 2.27383,0 4.23759,0.46942 6.3047,1.50214 1.96376,1.1266 3.41074,2.44098 4.65101,4.22477 1.13691,1.78379 1.65369,3.66146 1.65369,5.7269 0,2.06544 -0.51678,3.94312 -1.65369,5.72691 -1.24027,1.78379 -2.68725,3.09816 -4.65101,4.22476 -2.06711,1.03272 -4.03087,1.50214 -6.3047,1.50214 l 0,0 z"
         style="fill:#ffff66;fill-opacity:1;fill-rule:evenodd;stroke:none"
         inkscape:connector-curvature="0" />
      <path
         id="path5804"
         d="m 315.64848,420.8806 c -2.37718,0 -4.34094,-0.46942 -6.40806,-1.50214 -1.96376,-1.1266 -3.41074,-2.44097 -4.65101,-4.22476 -1.13691,-1.78379 -1.65369,-3.66147 -1.65369,-5.72691 0,-2.06544 0.51678,-3.94311 1.65369,-5.7269 1.24027,-1.78379 2.68725,-3.09817 4.65101,-4.22477 2.06712,-1.03272 4.03088,-1.50214 6.40806,-1.50214 2.27383,0 4.23759,0.46942 6.3047,1.50214 1.96376,1.1266 3.41074,2.44098 4.65101,4.22477 1.13691,1.78379 1.65369,3.66146 1.65369,5.7269 0,2.06544 -0.51678,3.94312 -1.65369,5.72691 -1.24027,1.78379 -2.68725,3.09816 -4.65101,4.22476 -2.06711,1.03272 -4.03087,1.50214 -6.3047,1.50214"
         style="fill:none;stroke:#808080;stroke-width:0.10335576px;stroke-linecap:round;stroke-linejoin:round;stroke-opacity:1;stroke-dasharray:none"
         inkscape:connector-curvature="0" />
      <path
         id="path5806"
         d="m 499.41501,386.04975 c -2.37718,0 -4.34094,-0.46942 -6.40805,-1.50214 -1.96376,-1.1266 -3.41074,-2.44097 -4.65101,-4.22476 -1.13692,-1.78379 -1.65369,-3.66147 -1.65369,-5.72691 0,-2.06544 0.51677,-3.94311 1.65369,-5.7269 1.24027,-1.78379 2.68725,-3.09817 4.65101,-4.22477 2.06711,-1.03272 4.03087,-1.50214 6.40805,-1.50214 2.27383,0 4.23759,0.46942 6.3047,1.50214 1.96376,1.1266 3.41074,2.44098 4.65101,4.22477 1.13692,1.78379 1.6537,3.66146 1.6537,5.7269 0,2.06544 -0.51678,3.94312 -1.6537,5.72691 -1.24027,1.78379 -2.68725,3.09816 -4.65101,4.22476 -2.06711,1.03272 -4.03087,1.50214 -6.3047,1.50214 l 0,0 z"
         style="fill:#ffff66;fill-opacity:1;fill-rule:evenodd;stroke:none"
         inkscape:connector-curvature="0" />
      <path
         id="path5808"
         d="m 499.41501,386.04975 c -2.37718,0 -4.34094,-0.46942 -6.40805,-1.50214 -1.96376,-1.1266 -3.41074,-2.44097 -4.65101,-4.22476 -1.13692,-1.78379 -1.65369,-3.66147 -1.65369,-5.72691 0,-2.06544 0.51677,-3.94311 1.65369,-5.7269 1.24027,-1.78379 2.68725,-3.09817 4.65101,-4.22477 2.06711,-1.03272 4.03087,-1.50214 6.40805,-1.50214 2.27383,0 4.23759,0.46942 6.3047,1.50214 1.96376,1.1266 3.41074,2.44098 4.65101,4.22477 1.13692,1.78379 1.6537,3.66146 1.6537,5.7269 0,2.06544 -0.51678,3.94312 -1.6537,5.72691 -1.24027,1.78379 -2.68725,3.09816 -4.65101,4.22476 -2.06711,1.03272 -4.03087,1.50214 -6.3047,1.50214"
         style="fill:none;stroke:#808080;stroke-width:0.10335576px;stroke-linecap:round;stroke-linejoin:round;stroke-opacity:1;stroke-dasharray:none"
         inkscape:connector-curvature="0" />
      <text
         id="text5810"
         style="font-size:51.05774307px;font-style:normal;font-weight:normal;text-align:start;text-anchor:start;fill:#000000;font-family:Times New Roman"
         y="53.044289"
         x="196.06587"
         xml:space="preserve">World</text>
      <path
         id="path5812"
         d="m 590.7815,100.26779 -44.13291,0"
         style="fill:none;stroke:#000000;stroke-width:0.10335576px;stroke-linecap:round;stroke-linejoin:round;stroke-opacity:1;stroke-dasharray:none"
         inkscape:connector-curvature="0" />
      <path
         id="path5814"
         d="m 552.84994,89.095626 2.48054,-2.910394 -43.30606,14.082558 43.30606,14.08255 -2.27383,-2.81651 -1.8604,-3.37981 -1.34363,-3.75535 -0.41342,-3.94312 0.31007,-4.036996 1.24027,-3.849231 1.8604,-3.473697 z"
         style="fill:#000000;fill-opacity:1;fill-rule:evenodd;stroke:none"
         inkscape:connector-curvature="0" />
      <path
         id="path5816"
         d="m 590.7815,100.26779 -43.82284,49.19505"
         style="fill:none;stroke:#000000;stroke-width:0.10335576px;stroke-linecap:round;stroke-linejoin:round;stroke-opacity:1;stroke-dasharray:none"
         inkscape:connector-curvature="0" />
      <path
         id="path5818"
         d="m 541.27409,138.10291 -0.9302,-3.56758 -15.19329,39.43116 39.27518,-21.78102 -3.82416,-0.0939 -4.13423,-0.84496 -3.92752,-1.40825 -3.7208,-2.15933 -3.20403,-2.81651 -2.48054,-3.28593 -1.86041,-3.4737 z"
         style="fill:#000000;fill-opacity:1;fill-rule:evenodd;stroke:none"
         inkscape:connector-curvature="0" />
      <text
         id="text5820"
         style="font-size:29.14632416px;font-style:normal;font-weight:normal;text-align:start;text-anchor:start;fill:#000000;font-family:Times New Roman"
         y="100.08002"
         x="594.70905"
         xml:space="preserve">Regions</text>
      <path
         id="path5822"
         d="m 419.72773,374.50206 c -2.37719,0 -4.34095,-0.46942 -6.40806,-1.50214 -1.96376,-1.12661 -3.41074,-2.44098 -4.65101,-4.22477 -1.13691,-1.78379 -1.65369,-3.66146 -1.65369,-5.7269 0,-2.06544 0.51678,-3.94312 1.65369,-5.72691 1.24027,-1.78379 2.68725,-3.09816 4.65101,-4.22476 2.06711,-1.03273 4.03087,-1.50214 6.40806,-1.50214 2.27382,0 4.23758,0.46941 6.3047,1.50214 1.96376,1.1266 3.41074,2.44097 4.65101,4.22476 1.13691,1.78379 1.65369,3.66147 1.65369,5.72691 0,2.06544 -0.51678,3.94311 -1.65369,5.7269 -1.24027,1.78379 -2.68725,3.09816 -4.65101,4.22477 -2.06712,1.03272 -4.03088,1.50214 -6.3047,1.50214 l 0,0 z"
         style="fill:#ffff66;fill-opacity:1;fill-rule:evenodd;stroke:none"
         inkscape:connector-curvature="0" />
      <path
         id="path5824"
         d="m 419.72773,374.50206 c -2.37719,0 -4.34095,-0.46942 -6.40806,-1.50214 -1.96376,-1.12661 -3.41074,-2.44098 -4.65101,-4.22477 -1.13691,-1.78379 -1.65369,-3.66146 -1.65369,-5.7269 0,-2.06544 0.51678,-3.94312 1.65369,-5.72691 1.24027,-1.78379 2.68725,-3.09816 4.65101,-4.22476 2.06711,-1.03273 4.03087,-1.50214 6.40806,-1.50214 2.27382,0 4.23758,0.46941 6.3047,1.50214 1.96376,1.1266 3.41074,2.44097 4.65101,4.22476 1.13691,1.78379 1.65369,3.66147 1.65369,5.72691 0,2.06544 -0.51678,3.94311 -1.65369,5.7269 -1.24027,1.78379 -2.68725,3.09816 -4.65101,4.22477 -2.06712,1.03272 -4.03088,1.50214 -6.3047,1.50214"
         style="fill:none;stroke:#808080;stroke-width:0.10335576px;stroke-linecap:round;stroke-linejoin:round;stroke-opacity:1;stroke-dasharray:none"
         inkscape:connector-curvature="0" />
      <path
         id="path5826"
         d="m 432.85391,182.79155 c -2.37719,0 -4.34095,-0.46942 -6.40806,-1.50214 -1.96376,-1.1266 -3.41074,-2.44097 -4.65101,-4.22476 -1.13691,-1.78379 -1.65369,-3.66147 -1.65369,-5.72691 0,-2.06544 0.51678,-3.94311 1.65369,-5.7269 1.24027,-1.78379 2.68725,-3.09816 4.65101,-4.22477 2.06711,-1.03272 4.03087,-1.50214 6.40806,-1.50214 2.27382,0 4.23758,0.46942 6.3047,1.50214 1.96376,1.12661 3.41074,2.44098 4.65101,4.22477 1.13691,1.78379 1.65369,3.66146 1.65369,5.7269 0,2.06544 -0.51678,3.94312 -1.65369,5.72691 -1.24027,1.78379 -2.68725,3.09816 -4.65101,4.22476 -2.06712,1.03272 -4.03088,1.50214 -6.3047,1.50214 l 0,0 z"
         style="fill:#ffff66;fill-opacity:1;fill-rule:evenodd;stroke:none"
         inkscape:connector-curvature="0" />
      <path
         id="path5828"
         d="m 432.85391,182.79155 c -2.37719,0 -4.34095,-0.46942 -6.40806,-1.50214 -1.96376,-1.1266 -3.41074,-2.44097 -4.65101,-4.22476 -1.13691,-1.78379 -1.65369,-3.66147 -1.65369,-5.72691 0,-2.06544 0.51678,-3.94311 1.65369,-5.7269 1.24027,-1.78379 2.68725,-3.09816 4.65101,-4.22477 2.06711,-1.03272 4.03087,-1.50214 6.40806,-1.50214 2.27382,0 4.23758,0.46942 6.3047,1.50214 1.96376,1.12661 3.41074,2.44098 4.65101,4.22477 1.13691,1.78379 1.65369,3.66146 1.65369,5.7269 0,2.06544 -0.51678,3.94312 -1.65369,5.72691 -1.24027,1.78379 -2.68725,3.09816 -4.65101,4.22476 -2.06712,1.03272 -4.03088,1.50214 -6.3047,1.50214"
         style="fill:none;stroke:#808080;stroke-width:0.10335576px;stroke-linecap:round;stroke-linejoin:round;stroke-opacity:1;stroke-dasharray:none"
         inkscape:connector-curvature="0" />
      <path
         id="path5830"
         d="m 118.75576,338.73237 c -2.37718,0 -4.34094,-0.46942 -6.40805,-1.50214 -1.96376,-1.1266 -3.41074,-2.44097 -4.65101,-4.22477 -1.13692,-1.78379 -1.65369,-3.66146 -1.65369,-5.7269 0,-2.06544 0.51677,-3.94312 1.65369,-5.72691 1.24027,-1.78379 2.68725,-3.09816 4.65101,-4.22476 2.06711,-1.03272 4.03087,-1.50214 6.40805,-1.50214 2.27383,0 4.23759,0.46942 6.3047,1.50214 1.96376,1.1266 3.41074,2.44097 4.65101,4.22476 1.13692,1.78379 1.6537,3.66147 1.6537,5.72691 0,2.06544 -0.51678,3.94311 -1.6537,5.7269 -1.24027,1.7838 -2.68725,3.09817 -4.65101,4.22477 -2.06711,1.03272 -4.03087,1.50214 -6.3047,1.50214 l 0,0 z"
         style="fill:#ffff66;fill-opacity:1;fill-rule:evenodd;stroke:none"
         inkscape:connector-curvature="0" />
      <path
         id="path5832"
         d="m 118.75576,338.73237 c -2.37718,0 -4.34094,-0.46942 -6.40805,-1.50214 -1.96376,-1.1266 -3.41074,-2.44097 -4.65101,-4.22477 -1.13692,-1.78379 -1.65369,-3.66146 -1.65369,-5.7269 0,-2.06544 0.51677,-3.94312 1.65369,-5.72691 1.24027,-1.78379 2.68725,-3.09816 4.65101,-4.22476 2.06711,-1.03272 4.03087,-1.50214 6.40805,-1.50214 2.27383,0 4.23759,0.46942 6.3047,1.50214 1.96376,1.1266 3.41074,2.44097 4.65101,4.22476 1.13692,1.78379 1.6537,3.66147 1.6537,5.72691 0,2.06544 -0.51678,3.94311 -1.6537,5.7269 -1.24027,1.7838 -2.68725,3.09817 -4.65101,4.22477 -2.06711,1.03272 -4.03087,1.50214 -6.3047,1.50214"
         style="fill:none;stroke:#808080;stroke-width:0.10335576px;stroke-linecap:round;stroke-linejoin:round;stroke-opacity:1;stroke-dasharray:none"
         inkscape:connector-curvature="0" />
      <path
         id="path5834"
         d="m 39.068476,278.17739 c -2.377183,0 -4.340942,-0.46942 -6.408057,-1.50214 -1.963759,-1.12661 -3.41074,-2.44098 -4.651009,-4.22477 -1.136913,-1.78379 -1.653692,-3.66146 -1.653692,-5.7269 0,-2.06544 0.516779,-3.94312 1.653692,-5.72691 1.240269,-1.78379 2.68725,-3.09816 4.651009,-4.22477 2.067115,-1.03272 4.030874,-1.50213 6.304701,-1.50213 2.377182,0 4.340942,0.46941 6.408057,1.50213 1.963759,1.12661 3.41074,2.44098 4.651009,4.22477 1.136913,1.78379 1.653692,3.66147 1.653692,5.72691 0,2.06544 -0.516779,3.94311 -1.653692,5.7269 -1.240269,1.78379 -2.68725,3.09816 -4.651009,4.22477 -2.067115,1.03272 -4.030875,1.50214 -6.304701,1.50214 l 0,0 z"
         style="fill:#ffff66;fill-opacity:1;fill-rule:evenodd;stroke:none"
         inkscape:connector-curvature="0" />
      <path
         id="path5836"
         d="m 39.068476,278.17739 c -2.377183,0 -4.340942,-0.46942 -6.408057,-1.50214 -1.963759,-1.12661 -3.41074,-2.44098 -4.651009,-4.22477 -1.136913,-1.78379 -1.653692,-3.66146 -1.653692,-5.7269 0,-2.06544 0.516779,-3.94312 1.653692,-5.72691 1.240269,-1.78379 2.68725,-3.09816 4.651009,-4.22477 2.067115,-1.03272 4.030874,-1.50213 6.304701,-1.50213 2.377182,0 4.340942,0.46941 6.408057,1.50213 1.963759,1.12661 3.41074,2.44098 4.651009,4.22477 1.136913,1.78379 1.653692,3.66147 1.653692,5.72691 0,2.06544 -0.516779,3.94311 -1.653692,5.7269 -1.240269,1.78379 -2.68725,3.09816 -4.651009,4.22477 -2.067115,1.03272 -4.030875,1.50214 -6.304701,1.50214"
         style="fill:none;stroke:#808080;stroke-width:0.10335576px;stroke-linecap:round;stroke-linejoin:round;stroke-opacity:1;stroke-dasharray:none"
         inkscape:connector-curvature="0" />
      <path
         id="path5838"
         d="M 577.75868,300.80336 453.21499,264.8459"
         style="fill:none;stroke:#000000;stroke-width:0.10335576px;stroke-linecap:round;stroke-linejoin:round;stroke-opacity:1;stroke-dasharray:none"
         inkscape:connector-curvature="0" />
      <path
         id="path5840"
         d="m 462.82708,255.92695 3.30738,-2.15932 -45.99331,1.50214 36.58794,25.34859 -1.24027,-3.37981 -0.72349,-3.75535 0.10335,-3.84923 0.82685,-3.94311 1.65369,-3.66147 2.48054,-3.28593 2.99732,-2.81651 z"
         style="fill:#000000;fill-opacity:1;fill-rule:evenodd;stroke:none"
         inkscape:connector-curvature="0" />
      <text
         id="text5842"
         style="font-size:29.14632416px;font-style:normal;font-weight:normal;text-align:start;text-anchor:start;fill:#000000;font-family:Times New Roman"
         y="302.77493"
         x="590.3681"
         xml:space="preserve">Entities</text>
      <path
         id="path5844"
         d="m 291.15317,565.27373 -26.25237,0 0,-47.69292 52.50473,0 0,47.69292 -26.25236,0 z"
         style="fill:#e6e6ff;fill-opacity:1;fill-rule:evenodd;stroke:none"
         inkscape:connector-curvature="0" />
      <path
         id="path5846"
         d="m 295.90753,517.58081 21.498,19.52781"
         style="fill:none;stroke:#000000;stroke-width:0.10335576px;stroke-linecap:round;stroke-linejoin:round;stroke-opacity:1;stroke-dasharray:none"
         inkscape:connector-curvature="0" />
      <path
         id="path5848"
         d="m 264.9008,517.58081 52.50473,47.69292"
         style="fill:none;stroke:#000000;stroke-width:0.10335576px;stroke-linecap:round;stroke-linejoin:round;stroke-opacity:1;stroke-dasharray:none"
         inkscape:connector-curvature="0" />
      <path
         id="path5850"
         d="m 264.9008,545.74592 21.498,19.52781"
         style="fill:none;stroke:#000000;stroke-width:0.10335576px;stroke-linecap:round;stroke-linejoin:round;stroke-opacity:1;stroke-dasharray:none"
         inkscape:connector-curvature="0" />
      <path
         id="path5852"
         d="m 291.15317,565.27373 -26.25237,0 0,-47.69292 52.50473,0 0,47.69292 -26.25236,0"
         style="fill:none;stroke:#808080;stroke-width:0.10335576px;stroke-linecap:round;stroke-linejoin:round;stroke-opacity:1;stroke-dasharray:none"
         inkscape:connector-curvature="0" />
      <path
         id="path5854"
         d="m 29.559746,564.241 -26.2523618,0 0,-47.69291 52.5047238,0 0,47.69291 -26.252362,0 z"
         style="fill:#ccffff;fill-opacity:1;fill-rule:evenodd;stroke:none"
         inkscape:connector-curvature="0" />
      <path
         id="path5856"
         d="m 29.559746,564.241 -26.2523618,0 0,-47.69291 52.5047238,0 0,47.69291 -26.252362,0"
         style="fill:none;stroke:#808080;stroke-width:0.10335576px;stroke-linecap:round;stroke-linejoin:round;stroke-opacity:1;stroke-dasharray:none"
         inkscape:connector-curvature="0" />
      <text
         id="text5858"
         style="font-size:29.14632416px;font-style:normal;font-weight:normal;text-align:start;text-anchor:start;fill:#000000;font-family:Times New Roman"
         y="553.16272"
         x="321.53976"
         xml:space="preserve">Part of the world </text>
      <text
         id="text5860"
         style="font-size:29.14632416px;font-style:normal;font-weight:normal;text-align:start;text-anchor:start;fill:#000000;font-family:Times New Roman"
         y="583.39325"
         x="321.53976"
         xml:space="preserve">current entity </text>
      <text
         id="text5862"
         style="font-size:29.14632416px;font-style:normal;font-weight:normal;text-align:start;text-anchor:start;fill:#000000;font-family:Times New Roman"
         y="613.62384"
         x="321.53976"
         xml:space="preserve">get updates from</text>
      <path
         id="path5864"
         d="m 577.65532,302.96268 -41.13559,37.36571"
         style="fill:none;stroke:#000000;stroke-width:0.10335576px;stroke-linecap:round;stroke-linejoin:round;stroke-opacity:1;stroke-dasharray:none"
         inkscape:connector-curvature="0" />
      <path
         id="path5866"
         d="m 532.28214,328.40516 -0.62013,-3.56758 -19.63759,37.74125 41.54901,-17.8379 -3.82416,-0.56331 -3.92752,-1.1266 -3.82416,-1.87767 -3.41074,-2.53486 -2.89397,-3.00428 -2.06711,-3.56758 -1.34363,-3.66147 z"
         style="fill:#000000;fill-opacity:1;fill-rule:evenodd;stroke:none"
         inkscape:connector-curvature="0" />
    </g>
  </g>
</svg>
